<svg xmlns="http://www.w3.org/2000/svg" xmlns:xlink="http://www.w3.org/1999/xlink" viewBox="0 0 1440.36015 364.10001">
  <defs>
    <style>
      .a {
        fill: url(#a);
      }

      .b {
        fill: #290052;
      }

      .c {
        fill: none;
      }
    </style>
    <linearGradient id="a" x1="228.23864" y1="354.61086" x2="2.68865" y2="1.06082" gradientTransform="matrix(1, 0, 0, -1, 0, 365.41998)" gradientUnits="userSpaceOnUse">
      <stop offset="0" stop-color="#fe8b4c"/>
      <stop offset="0.22" stop-color="#fe824f"/>
      <stop offset="0.59" stop-color="#fe6858"/>
      <stop offset="1" stop-color="#fe4465"/>
    </linearGradient>
  </defs>
  <title>statusflare-light</title>
  <path class="a" d="M66.2,165.5v66.21H0v-66.2Zm0,132.4v66.2h66.2V231.71H66.2ZM198.6,33.1V0H132.4V231.71h66.2V33.1Z"/>
  <path class="b" d="M350.23,161.43c18,4,41.37,11.45,40.9,36.46,0,11.22-4.44,20.1-13.09,26.41s-19.4,9.59-32.49,9.59c-23.14,0-40.2-10.29-47.68-27.35l21.74-12.62q6,16.83,25.94,16.83c13.32,0,19.87-4.44,19.87-13.09,0-7.48-9.82-11.92-22.21-15-17.53-4.44-41.13-11.45-40.66-36,0-10.76,4-19.4,12.15-25.95s18.46-9.82,30.62-9.82c19.4,0,35.06,9.12,43.24,24.31l-21.27,11.92c-4-8.88-11.45-13.32-22-13.32-9.58,0-17.06,4.21-17.06,12.39C328.26,153.95,338.08,157.93,350.23,161.43Z"/>
  <path class="b" d="M477.88,138.29h-27v56.1c0,15,9.82,14.72,29,13.79v22.67c-38.57,4.67-54.23-5.84-54.23-36.46v-56.1h-21.5V113.98h21.5V81.26h25.24v32.72h27Z"/>
  <path class="b" d="M594.67,113.98h25.24V230.85H594.67V214.02c-9.59,13.32-23.14,19.87-40.91,19.87-16.13,0-29.68-5.85-41.14-17.77s-17.06-26.64-17.06-43.7c0-17.3,5.61-31.79,17.06-43.71s25-17.77,41.14-17.77c17.77,0,31.32,6.55,40.91,19.64ZM557.74,209.81c10.51,0,19.39-3.5,26.41-10.51,7-7.25,10.52-16.13,10.52-26.88s-3.51-19.64-10.52-26.65c-7-7.25-15.9-10.75-26.41-10.75s-19.4,3.5-26.42,10.75q-10.51,10.51-10.51,26.65c0,10.75,3.5,19.63,10.51,26.88C538.34,206.31,547.22,209.81,557.74,209.81Z"/>
  <path class="b" d="M714.58,138.29h-27v56.1c0,15,9.81,14.72,29,13.79v22.67c-38.56,4.67-54.22-5.84-54.22-36.46v-56.1H640.85V113.98h21.51V81.26H687.6v32.72h27Z"/>
  <path class="b" d="M818.75,113.98H844V230.85H818.75v-15c-7.71,11.92-19.63,18-36.23,18-26.87,0-44.87-18.23-44.87-48.15V113.98h25.24v69.19c0,17.53,10.05,27.11,26.18,27.11,17.76,0,29.68-11,29.68-33.66Z"/>
  <path class="b" d="M916.08,162.71c18,4,41.37,11.46,40.91,36.47,0,11.22-4.44,20.1-13.09,26.41s-19.4,9.58-32.49,9.58c-23.14,0-40.19995-10.28-47.68-27.35l21.74-12.62q6,16.83,25.93994,16.83c13.31994,0,19.87-4.44,19.87-13.09,0-7.48-9.81994-11.92-22.21-15-17.53-4.44-41.14-11.45-40.67-36,0-10.75,4-19.4,12.16-25.94s18.46-9.82,30.62-9.82c19.4,0,35.06006,9.11,43.24,24.31l-21.27,11.92c-4-8.89-11.46-13.33-22-13.33-9.59,0-17.06995,4.21-17.06995,12.39C894.14006,155.22,903.96,159.2,916.08,162.71Z"/>
  <path class="b" d="M1057.79,232.12V65.22h25.29v166.9Z"/>
  <path class="b" d="M1200.47,115.26h25.24V232.12h-25.24V215.29c-9.58,13.33-23.14,19.87-40.9,19.87-16.13,0-29.68994-5.84-41.14-17.76S1101.37,190.71,1101.37,173.71c0-17.3,5.61-31.79,17.06006-43.71s25-17.76,41.14-17.76c17.76,0,31.31995,6.54,40.9,19.63ZM1163.54,211.09c10.52,0,19.4-3.51,26.41-10.52,7-7.25,10.52-16.13,10.52-26.88s-3.51-19.63-10.52-26.65c-7-7.24-15.89-10.75-26.41-10.75s-19.4,3.51-26.41,10.75q-10.52,10.53-10.52,26.65c0,10.75,3.51,19.63,10.52,26.88C1144.14006,207.58,1153.01994,211.09,1163.54,211.09Z"/>
  <path class="b" d="M1276.16,134.89c6.31006-14.49,18.47-21.74,36-21.74V140.5q-14.38-1.05-25.25,7c-7.24,5.14-10.75,13.79-10.75,25.71v58.9h-25.24V115.26h25.24Z"/>
  <path class="b" d="M1346.35,184.44c3.74,17.77,18,27.58,37.39,27.58,13.33,0,23.38-4.91,30.16-14.49l20.80005,12.15c-11.46,17.07-28.52,25.48-51.18994,25.48-18.93006,0-34.36-5.84-46-17.29q-17.52009-17.54-17.53-44.18c0-17.53,5.85-32,17.3-43.71,11.45-11.92,26.41-17.76,44.41-17.76,17.06006,0,31.09,6.08,42.07,18s16.6,26.64,16.6,43.7a68.83747,68.83747,0,0,1-.93994,10.52Zm68.48-20.57c-3.51-18.93-16.82995-28.75-33.42-28.75-18.69995,0-31.79,11-35.30005,28.75Z"/>
  <path class="b" d="M1012.49,115.26v-7.87a17.44,17.44,0,0,1,17.42-17.42h10V64.87h-10a42.57005,42.57005,0,0,0-42.52,42.52v7.87h-17.85v24.3h17.76v92.56h25.24V139.56h19.48v-24.3Z"/>
  <rect class="c" x="-164.92" y="-165.29001" width="1770.52002" height="694.69"/>
</svg>
